<?xml version="1.0" standalone="no"?>
<!DOCTYPE svg PUBLIC "-//W3C//DTD SVG 20010904//EN"
 "http://www.w3.org/TR/2001/REC-SVG-20010904/DTD/svg10.dtd">
<svg version="1.0" xmlns="http://www.w3.org/2000/svg"
 width="1024.000000pt" height="766.000000pt" viewBox="0 0 1024.000000 766.000000"
 preserveAspectRatio="xMidYMid meet">

<g transform="translate(0.000000,766.000000) scale(0.100000,-0.100000)"
fill="#000000" stroke="none">
<path d="M0 3830 l0 -3830 5120 0 5120 0 0 3830 0 3830 -5120 0 -5120 0 0
-3830z m5516 3584 c369 -38 733 -136 1091 -295 775 -343 1423 -960 1803 -1719
289 -576 421 -1215 381 -1845 -24 -368 -80 -658 -192 -981 -179 -518 -439
-938 -829 -1338 -923 -946 -2198 -1339 -3471 -1070 -748 157 -1421 543 -1952
1119 -552 599 -843 1235 -944 2065 -24 199 -24 627 0 830 72 600 291 1175 630
1660 385 549 926 1005 1514 1273 407 186 820 288 1283 317 172 11 504 3 686
-16z m4302 -6757 c17 -10 44 -36 59 -59 54 -81 25 -199 -59 -245 -51 -28 -250
-26 -298 3 -124 72 -109 261 25 310 56 20 228 14 273 -9z"/>
<path d="M6827 6929 c7 -7 15 -10 18 -7 3 3 -2 9 -12 12 -14 6 -15 5 -6 -5z"/>
<path d="M6855 6900 c-4 -6 1 -7 11 -3 13 5 15 3 9 -7 -5 -8 -4 -11 3 -6 6 3
13 2 17 -4 3 -5 12 -10 18 -10 7 0 1 9 -13 20 -29 22 -36 24 -45 10z"/>
<path d="M6934 6872 c4 -8 0 -12 -11 -12 -13 0 -10 -4 11 -15 15 -8 32 -13 36
-10 5 3 11 -4 15 -15 3 -11 11 -20 16 -20 13 0 1 -42 -14 -52 -8 -5 -8 -14 0
-30 6 -14 9 -38 7 -54 -4 -24 -3 -26 5 -9 11 23 14 6 5 -20 -5 -13 -9 -14 -15
-4 -4 8 -11 10 -14 7 -4 -4 0 -17 9 -30 19 -26 20 -38 6 -38 -6 0 -15 10 -20
23 -7 17 -9 18 -9 5 -1 -13 -9 -18 -29 -18 -24 0 -28 -4 -27 -27 0 -18 6 -29
18 -31 18 -4 24 13 7 23 -16 10 -12 25 6 25 10 0 14 -6 11 -14 -3 -8 -1 -16 5
-18 7 -3 3 -13 -11 -27 -26 -26 -61 -20 -61 10 0 12 -7 19 -17 18 -11 0 -13
-3 -5 -6 14 -5 17 -33 3 -33 -5 0 -11 6 -14 13 -2 6 -8 8 -13 4 -5 -4 -2 -12
6 -17 11 -7 11 -12 2 -23 -7 -8 -10 -22 -6 -31 5 -12 0 -16 -16 -16 -17 0 -21
-5 -17 -19 2 -10 1 -24 -3 -31 -11 -18 -30 -3 -29 23 1 21 2 20 10 -3 7 -21 8
-20 4 9 -3 18 -5 39 -6 45 -1 6 -7 -9 -14 -34 -7 -25 -14 -36 -15 -25 l-1 20
-9 -20 c-7 -16 -9 -17 -9 -3 -1 13 -8 15 -33 11 -45 -7 -48 -13 -8 -13 28 0
31 -2 20 -15 -9 -11 -16 -12 -26 -5 -9 9 -11 7 -8 -7 3 -11 -3 -23 -17 -31
-21 -13 -21 -13 -15 15 7 26 6 27 -7 9 -9 -12 -20 -17 -31 -13 -10 4 -21 -2
-32 -18 -9 -14 -20 -22 -25 -19 -5 3 -6 -2 -2 -11 5 -13 7 -14 14 -3 7 10 9 9
9 -4 0 -10 4 -18 9 -18 10 0 27 -39 23 -53 -1 -5 2 -6 8 -2 6 3 14 -4 19 -17
6 -13 10 -18 10 -13 1 6 10 -3 20 -19 11 -17 18 -33 15 -38 -3 -4 2 -15 10
-24 9 -8 16 -22 16 -30 0 -8 6 -14 13 -14 7 0 13 -10 14 -22 1 -11 8 -25 15
-29 7 -5 14 -13 14 -19 1 -5 2 -14 3 -20 0 -5 10 -14 21 -20 17 -9 19 -8 13 7
-5 15 -3 14 10 -2 8 -11 19 -20 24 -20 19 -2 58 -19 70 -31 8 -7 20 -11 27 -8
9 3 17 -3 21 -15 3 -12 11 -19 16 -16 5 4 9 1 9 -6 0 -7 3 -10 6 -6 3 3 16 -5
29 -18 12 -14 25 -22 28 -19 6 7 37 -20 37 -31 0 -14 38 -54 45 -47 3 4 6 2 4
-3 -3 -11 8 -43 22 -65 5 -8 15 -26 21 -40 7 -14 19 -30 27 -36 10 -8 11 -13
3 -18 -7 -4 -12 -12 -12 -17 0 -6 5 -7 11 -3 8 4 9 -1 4 -17 -4 -13 -4 -21 0
-17 13 13 39 -32 26 -45 -7 -7 -7 -14 0 -23 7 -8 7 -14 -1 -19 -5 -3 -10 -11
-10 -17 0 -6 6 -6 15 2 14 11 14 10 5 -14 -12 -32 -13 -39 -2 -33 4 3 8 -18 9
-46 0 -28 6 -53 11 -55 5 -1 8 -13 5 -25 -4 -18 -3 -20 7 -7 10 13 11 13 6 -3
-3 -9 -3 -31 1 -47 4 -25 8 -28 20 -19 11 10 12 8 7 -6 -5 -12 -4 -16 3 -12 7
5 9 -1 6 -15 -4 -19 -3 -21 7 -8 10 13 11 12 6 -3 -3 -10 -6 -21 -6 -23 0 -3
-4 -2 -10 1 -6 3 -7 -1 -4 -10 6 -14 8 -14 19 1 11 16 12 16 18 0 4 -10 3 -25
-2 -33 -6 -12 6 -36 48 -92 31 -42 65 -95 75 -118 10 -23 22 -41 25 -38 4 2 7
-4 7 -13 1 -9 11 -53 23 -97 73 -269 36 -496 -108 -660 -39 -45 -51 -67 -57
-104 -3 -25 -13 -80 -21 -121 -40 -205 -175 -349 -391 -417 -78 -24 -93 -25
-215 -20 l-132 5 -61 -34 c-202 -113 -531 -98 -702 33 l-33 24 -75 -73 c-89
-86 -120 -125 -99 -125 8 0 11 5 8 10 -3 5 0 7 8 5 17 -6 15 -74 -2 -94 -9
-11 -9 -14 0 -14 13 0 5 -47 -11 -67 -5 -7 -7 -16 -4 -22 3 -5 0 -12 -6 -14
-10 -4 -10 -6 0 -6 9 -1 11 -11 6 -36 -4 -22 -2 -35 4 -35 7 0 8 -14 5 -36 -5
-32 -4 -36 13 -30 14 4 22 -1 32 -21 6 -15 12 -35 12 -45 0 -12 8 -18 23 -18
15 0 18 -3 9 -8 -9 -7 -8 -13 8 -27 13 -11 18 -25 14 -37 -3 -12 0 -18 10 -18
9 0 16 8 16 17 0 20 9 12 15 -13 10 -40 30 -94 36 -94 3 0 17 -10 30 -21 16
-15 20 -23 12 -26 -19 -7 -16 -20 7 -26 11 -3 20 -13 20 -22 0 -12 6 -16 20
-12 15 4 20 0 20 -14 0 -10 5 -19 11 -19 5 0 7 -4 4 -10 -3 -5 -1 -19 5 -30 9
-17 14 -19 26 -9 9 7 14 8 14 1 0 -6 3 -17 6 -26 4 -11 1 -16 -11 -16 -9 0
-14 -4 -10 -10 3 -5 13 -6 22 -3 14 5 15 1 10 -30 -3 -21 -2 -37 4 -37 5 0 9
10 9 23 0 21 36 54 47 43 8 -7 -7 -46 -18 -46 -18 0 -9 -18 12 -23 15 -4 20
-11 16 -21 -4 -9 -2 -16 3 -16 6 0 10 9 10 20 0 11 -5 20 -11 20 -5 0 -7 5 -4
11 4 5 12 8 18 6 13 -4 19 -65 7 -72 -5 -3 5 -19 21 -36 16 -17 33 -28 39 -24
5 3 10 1 10 -4 0 -6 -7 -11 -15 -11 -8 0 -15 -7 -15 -15 0 -8 5 -15 10 -15 6
0 10 -10 11 -22 0 -18 2 -19 7 -7 5 13 13 14 31 8 19 -8 21 -12 11 -24 -17
-20 -4 -35 31 -35 26 0 29 -3 29 -31 0 -25 3 -29 13 -20 15 12 27 5 27 -16 0
-7 -9 -13 -20 -13 -12 0 -17 -5 -14 -14 3 -8 13 -12 25 -9 15 4 19 0 19 -21 0
-19 4 -24 15 -20 10 4 13 13 10 25 -5 14 -1 19 14 19 29 0 26 -23 -4 -46 -27
-20 -33 -36 -12 -33 29 4 38 -2 32 -20 -3 -10 1 -23 9 -30 8 -7 18 -27 22 -44
3 -17 10 -38 15 -47 4 -8 13 -36 20 -63 11 -44 29 -64 29 -32 0 8 -4 15 -10
15 -5 0 -10 9 -10 19 0 11 5 23 10 26 6 3 10 -1 10 -9 0 -8 7 -21 15 -29 12
-12 12 -21 4 -47 -6 -17 -9 -34 -5 -37 3 -4 6 1 6 11 0 10 5 14 11 11 6 -4 8
-13 5 -21 -4 -10 3 -14 26 -14 34 0 29 -14 -7 -23 -15 -3 -13 -5 8 -6 35 -1
26 -21 -10 -21 -39 0 -18 -14 23 -16 46 -1 54 -12 25 -33 -29 -22 -20 -44 15
-35 14 4 24 2 24 -5 0 -6 -11 -11 -25 -11 -16 0 -25 -6 -25 -16 0 -8 4 -13 9
-10 13 8 34 -21 27 -39 -3 -8 -16 -15 -28 -16 -18 -1 -16 -3 10 -10 33 -10 41
-22 21 -35 -8 -4 -2 -12 15 -21 26 -14 34 -37 16 -48 -13 -8 -13 -45 0 -45 6
0 13 7 17 16 5 12 7 13 14 3 5 -8 3 -17 -4 -22 -9 -7 -9 -10 1 -14 6 -2 12
-10 12 -16 0 -6 7 -19 17 -29 14 -16 14 -18 0 -18 -8 0 -17 6 -19 12 -3 9 -10
7 -24 -7 -16 -16 -16 -18 -2 -13 20 8 41 -14 32 -35 -3 -10 2 -21 15 -29 17
-10 19 -19 14 -51 -5 -34 -3 -38 13 -37 32 4 37 1 23 -16 -10 -13 -10 -17 2
-25 9 -6 11 -11 3 -16 -12 -9 -14 -113 -2 -113 4 0 5 7 2 15 -4 8 -2 15 4 15
6 0 12 -6 15 -12 2 -8 8 -9 13 -4 5 5 4 11 -3 13 -7 3 -13 13 -13 24 0 10 -4
19 -10 19 -5 0 -10 5 -10 10 0 19 17 10 31 -17 8 -16 18 -31 23 -35 6 -4 -1
-15 -14 -26 -15 -12 -20 -23 -15 -32 6 -10 10 -9 17 4 12 22 18 20 52 -11 l28
-26 -23 -14 c-24 -13 -24 -13 6 -8 l30 6 -30 -18 c-16 -9 -33 -16 -37 -15 -4
1 -12 -7 -18 -18 -7 -14 -7 -20 0 -20 5 0 10 4 10 10 0 5 3 9 8 8 4 -1 21 5
37 14 17 8 41 19 55 22 48 14 -276 -158 -410 -217 -499 -218 -861 -304 -1332
-314 -406 -10 -743 33 -1108 139 -58 17 -109 31 -115 32 -45 8 -336 127 -467
190 -73 36 -147 70 -165 77 -17 7 -29 18 -26 24 4 5 3 7 -2 3 -5 -5 -22 3 -40
16 -17 13 -47 31 -66 40 -19 9 -52 30 -74 46 -22 17 -52 36 -67 41 -16 6 -25
15 -22 20 3 5 2 8 -3 7 -4 -2 -18 6 -30 17 -23 22 -28 25 -88 69 -57 42 -218
178 -232 196 -6 8 -16 16 -22 16 -6 1 -16 2 -21 3 -6 0 -9 4 -8 9 3 8 -69 84
-76 80 -2 -2 -36 33 -77 77 -41 44 -80 84 -87 88 -7 5 -10 13 -6 18 3 5 1 8
-4 7 -11 -4 -103 98 -121 134 -8 15 -19 26 -25 25 -6 -1 -10 4 -8 11 1 8 -2
11 -7 8 -5 -4 -12 2 -15 12 -3 10 -21 34 -40 54 -19 20 -32 39 -29 41 2 3 -5
11 -17 17 -12 6 -19 14 -16 18 4 3 -6 18 -21 34 -15 15 -23 28 -19 28 4 0 -4
11 -18 25 -31 31 -47 33 -20 3 11 -13 33 -43 49 -68 70 -108 163 -222 175
-215 4 3 7 -1 6 -8 -2 -18 61 -92 194 -230 110 -114 350 -337 353 -328 1 3 16
-8 32 -23 79 -74 291 -219 307 -210 7 4 8 3 4 -4 -8 -13 159 -114 322 -196
406 -204 822 -322 1302 -371 224 -23 618 -17 837 14 325 45 664 139 943 261
92 40 330 158 396 196 325 186 686 476 945 759 317 347 585 793 734 1226 153
443 221 926 195 1390 -45 837 -354 1582 -923 2227 -84 96 -256 269 -243 245 4
-7 3 -13 -2 -13 -5 0 -15 11 -22 25 -7 13 -17 22 -22 19 -5 -4 37 -53 94 -111
130 -132 128 -130 128 -138 0 -4 -31 24 -68 61 -175 175 -338 315 -472 404
-36 24 -68 48 -71 53 -4 5 -12 6 -19 2 -8 -5 -11 -4 -7 1 8 14 -58 56 -95 60
-18 2 -37 9 -43 15 -6 7 0 6 20 -1 41 -15 22 0 -49 40 -33 18 -56 28 -52 22z
m116 -103 c0 -5 -4 -9 -10 -9 -5 0 -10 7 -10 16 0 8 5 12 10 9 6 -3 10 -10 10
-16z m-13 -92 c2 -32 2 -32 -10 -7 -9 17 -10 27 -3 32 6 4 11 8 11 8 0 0 1
-15 2 -33z m6 -64 c-3 -7 -9 -10 -14 -7 -14 8 -11 21 5 21 8 0 12 -6 9 -14z
m37 -26 c0 -7 -4 -6 -10 3 -8 12 -10 12 -10 1 0 -8 -3 -12 -6 -8 -9 9 6 28 17
22 5 -4 9 -12 9 -18z m-200 -107 c0 -11 -7 -20 -15 -20 -13 0 -13 3 -3 20 7
11 14 20 15 20 2 0 3 -9 3 -20z m771 -87 l24 -26 -27 19 c-15 10 -28 22 -28
27 0 12 5 8 31 -20z m-907 -44 c-8 -14 -24 -10 -24 6 0 9 6 12 15 9 8 -4 12
-10 9 -15z m957 -6 c13 -16 12 -17 -3 -4 -10 7 -18 15 -18 17 0 8 8 3 21 -13z
m40 -40 c13 -16 12 -17 -3 -4 -10 7 -18 15 -18 17 0 8 8 3 21 -13z m-1051 3
c0 -2 -7 -7 -16 -10 -8 -3 -12 -2 -9 4 6 10 25 14 25 6z m1171 -163 c13 -16
12 -17 -3 -4 -10 7 -18 15 -18 17 0 8 8 3 21 -13z m69 -88 l25 -30 -27 24
c-16 14 -28 29 -28 34 0 6 1 8 3 6 1 -2 13 -17 27 -34z m115 -143 c-3 -3 -11
0 -18 7 -9 10 -8 11 6 5 10 -3 15 -9 12 -12z m84 -126 c-3 -3 -11 5 -18 17
-13 21 -12 21 5 5 10 -10 16 -20 13 -22z m56 -82 c9 -15 12 -23 6 -20 -11 7
-35 46 -28 46 3 0 12 -12 22 -26z m-831 -652 c3 -5 -1 -9 -9 -9 -8 0 -12 4 -9
9 3 4 7 8 9 8 2 0 6 -4 9 -8z m-1659 -1759 c-2 -10 -4 -19 -4 -21 -1 -2 -6 0
-11 3 -8 5 -7 11 1 21 15 18 18 18 14 -3z m-21 -41 c2 -4 -5 -9 -17 -9 -17 -2
-19 0 -7 7 18 12 18 12 24 2z m501 -1102 c3 -5 1 -10 -4 -10 -6 0 -11 5 -11
10 0 6 2 10 4 10 3 0 8 -4 11 -10z m312 -457 c-3 -10 -5 -2 -5 17 0 19 2 27 5
18 2 -10 2 -26 0 -35z m53 -94 c0 -10 -4 -19 -9 -19 -12 0 -23 29 -15 41 8 14
24 0 24 -22z m80 -249 c0 -5 -4 -10 -10 -10 -5 0 -10 5 -10 10 0 6 5 10 10 10
6 0 10 -4 10 -10z m47 -112 c-3 -8 -6 -5 -6 6 -1 11 2 17 5 13 3 -3 4 -12 1
-19z m23 -48 c0 -5 -5 -10 -11 -10 -5 0 -7 5 -4 10 3 6 8 10 11 10 2 0 4 -4 4
-10z m50 -194 c0 -3 -4 -8 -10 -11 -5 -3 -10 -1 -10 4 0 6 5 11 10 11 6 0 10
-2 10 -4z m330 -190 c0 -3 -4 -8 -10 -11 -5 -3 -10 -1 -10 4 0 6 5 11 10 11 6
0 10 -2 10 -4z m-82 -51 c-2 -1 -13 -8 -25 -14 -19 -10 -23 -9 -23 5 0 10 5
14 14 11 11 -4 13 -1 9 11 -6 15 -5 15 10 3 10 -8 16 -15 15 -16z m-111 -42
c-3 -10 -5 -4 -5 12 0 17 2 24 5 18 2 -7 2 -21 0 -30z m33 -2 c0 -6 -4 -13
-10 -16 -5 -3 -10 1 -10 9 0 9 5 16 10 16 6 0 10 -4 10 -9z m45 -11 c-3 -5
-12 -10 -18 -10 -7 0 -6 4 3 10 19 12 23 12 15 0z"/>
<path d="M6966 6803 c-3 -10 -9 -24 -12 -30 -3 -7 -1 -13 5 -13 6 0 11 7 11
16 0 11 5 14 16 10 15 -6 15 -4 3 11 -7 10 -14 19 -15 21 -1 1 -4 -5 -8 -15z"/>
<path d="M6905 6780 c-3 -6 1 -7 9 -4 18 7 21 14 7 14 -6 0 -13 -4 -16 -10z"/>
<path d="M6937 6723 c-11 -10 -8 -20 6 -26 8 -3 14 3 14 14 2 19 -8 25 -20 12z"/>
<path d="M6955 6650 c-4 -14 -13 -28 -19 -32 -8 -6 -7 -8 1 -8 15 0 36 37 30
53 -2 7 -7 1 -12 -13z"/>
<path d="M7490 6527 c0 -2 13 -16 29 -31 21 -20 31 -24 36 -15 5 8 4 10 -3 5
-7 -4 -12 -4 -12 1 -1 8 -50 48 -50 40z"/>
<path d="M6795 6460 c3 -5 8 -10 11 -10 2 0 4 5 4 10 0 6 -5 10 -11 10 -5 0
-7 -4 -4 -10z"/>
<path d="M5365 6440 c-10 -11 -28 -20 -40 -20 -20 0 -65 -48 -69 -74 -1 -7
-12 -23 -24 -36 -12 -13 -24 -32 -28 -42 -6 -21 -20 -24 -28 -5 -3 6 -4 -1 -1
-17 4 -20 1 -32 -12 -43 -17 -14 -17 -14 0 -9 11 3 17 0 17 -9 0 -8 -6 -14
-12 -12 -7 1 -11 -5 -9 -13 2 -8 3 -23 3 -32 0 -10 3 -18 8 -18 6 0 5 -11 0
-26 -7 -17 -7 -32 0 -45 6 -11 8 -43 5 -72 l-5 -52 30 55 c70 125 192 209 317
217 125 9 238 -30 336 -116 43 -36 48 -38 135 -44 181 -11 307 -60 403 -156
67 -67 105 -138 125 -230 7 -36 14 -69 14 -72 0 -8 39 -23 115 -44 171 -48
299 -165 347 -318 10 -33 21 -100 25 -148 l6 -88 58 -46 c66 -52 108 -107 149
-198 76 -168 63 -385 -28 -480 -30 -32 -91 -72 -98 -65 -2 3 12 25 31 49 76
95 101 237 71 389 -30 144 -58 189 -199 315 -42 38 -45 44 -56 115 -16 103
-55 223 -90 274 -38 55 -89 89 -192 130 -117 46 -166 73 -183 99 -7 12 -26 59
-41 105 -33 101 -73 156 -145 200 -79 47 -139 62 -283 72 -121 8 -132 10 -180
41 -145 92 -175 103 -282 107 -97 4 -102 3 -165 -30 -50 -26 -76 -48 -112 -96
-50 -66 -91 -173 -69 -180 15 -5 14 -32 -1 -32 -10 0 -9 -3 1 -9 10 -6 12 -22
7 -57 -5 -48 11 -85 38 -84 6 1 40 23 76 51 127 97 236 136 360 127 89 -7 154
-42 255 -139 76 -73 90 -82 170 -109 48 -16 107 -41 130 -55 53 -31 110 -96
126 -143 16 -48 7 -137 -18 -170 -26 -35 -80 -72 -106 -72 -17 0 -15 5 15 38
20 22 43 60 53 85 22 57 9 102 -41 146 -32 28 -61 40 -224 85 -79 22 -110 45
-184 134 -86 104 -113 117 -237 116 -88 0 -103 -3 -162 -32 -119 -59 -243
-222 -240 -315 1 -22 8 -44 15 -48 9 -6 9 -9 1 -9 -7 0 -11 -17 -10 -49 1 -27
6 -46 11 -44 5 3 6 0 4 -8 -3 -8 -11 -13 -18 -11 -23 5 8 -25 31 -31 14 -4 29
2 44 18 37 41 131 91 195 105 37 8 90 11 136 7 102 -8 169 -41 232 -114 87
-103 107 -121 152 -133 59 -16 128 -6 252 36 125 42 207 45 295 13 113 -42
209 -130 238 -220 30 -91 18 -231 -26 -307 -23 -40 -23 -43 -5 -36 19 7 96
-27 141 -63 46 -36 116 -141 144 -216 95 -259 -124 -602 -451 -708 l-72 -23
34 -14 c48 -20 240 -28 312 -13 118 25 236 104 296 198 41 66 62 133 71 228 9
94 24 130 86 205 58 69 110 177 126 258 34 180 -34 425 -162 583 -67 83 -83
120 -114 268 -14 67 -31 134 -36 149 -20 54 -34 82 -41 82 -4 0 -5 6 -2 13 6
17 -85 159 -97 151 -5 -3 -8 0 -7 8 2 7 -3 12 -10 10 -8 -1 -11 2 -8 7 6 10
-44 52 -104 88 -19 12 -78 34 -130 49 -96 28 -132 48 -138 74 -2 8 -7 17 -10
20 -4 3 -7 11 -8 18 -3 33 -4 34 -21 21 -16 -13 -17 -12 -5 3 11 14 11 22 -3
48 -10 19 -22 30 -33 28 -9 -2 -17 3 -18 10 -1 6 -2 16 -3 22 0 5 -8 7 -16 4
-10 -4 -15 0 -15 11 0 9 -5 13 -11 10 -6 -4 -13 2 -16 14 -3 11 -10 18 -15 15
-5 -3 -9 0 -7 7 3 29 -1 50 -11 44 -6 -3 -13 0 -16 9 -8 20 -34 29 -50 16 -9
-9 -16 -6 -24 11 -10 17 -14 19 -21 8 -6 -11 -9 -10 -14 3 -4 10 -14 14 -28
10 -19 -5 -20 -3 -9 10 18 23 -2 32 -24 11 -16 -16 -16 -16 -9 6 6 21 4 23
-13 19 -12 -3 -23 -1 -25 6 -2 6 -26 11 -59 11 -31 0 -54 3 -51 8 2 4 -26 7
-62 7 -42 0 -64 -4 -60 -10 10 -16 -7 -12 -19 5 -6 8 -26 16 -43 17 -21 1 -33
8 -33 16 0 12 -3 12 -15 2 -12 -10 -15 -10 -15 4 0 9 -7 16 -15 16 -8 0 -15 4
-15 10 0 5 -7 7 -15 4 -10 -4 -15 0 -15 15 0 12 -3 20 -7 20 -26 -4 -43 3 -44
19 0 15 -1 15 -8 -1 -6 -17 -8 -17 -20 -3 -7 9 -19 16 -26 16 -7 0 -16 7 -19
16 -3 8 -10 13 -15 9 -6 -3 -26 1 -45 9 -19 8 -37 11 -41 8 -3 -4 -3 1 1 11 7
20 1 21 -27 7 -15 -9 -19 -7 -19 7 0 11 -3 14 -8 7 -13 -19 -42 -25 -42 -9 0
20 -16 19 -24 -1 -5 -14 -7 -14 -22 0 -19 20 -17 20 -39 -4z"/>
<path d="M5585 6439 c-4 -6 -5 -12 -2 -15 2 -3 7 2 10 11 7 17 1 20 -8 4z"/>
<path d="M4600 6370 c0 -5 5 -10 10 -10 6 0 10 5 10 10 0 6 -4 10 -10 10 -5 0
-10 -4 -10 -10z"/>
<path d="M4540 6355 c-7 -9 -21 -13 -31 -10 -11 4 -19 2 -19 -5 0 -8 19 -10
60 -7 33 2 57 0 54 -4 -3 -5 -1 -9 5 -9 5 0 16 -2 23 -5 9 -4 19 4 26 20 15
33 15 35 -4 35 -10 0 -14 -6 -11 -14 5 -12 -3 -15 -39 -13 -30 1 -43 6 -39 15
6 17 -10 15 -25 -3z"/>
<path d="M4700 6356 c0 -7 -9 -16 -21 -19 -24 -6 -20 -33 4 -31 9 1 15 -2 12
-5 -2 -4 10 -15 28 -23 83 -40 189 -176 171 -221 -10 -27 -18 -20 -37 34 -40
111 -117 151 -292 153 -82 1 -95 -2 -144 -29 -90 -50 -151 -170 -151 -297 0
-59 -16 -69 -47 -30 -28 36 -74 52 -154 52 -94 0 -154 -24 -219 -88 -71 -70
-98 -137 -109 -270 -7 -74 -12 -98 -29 -114 l-20 -21 -21 42 c-19 37 -25 41
-59 41 -97 0 -201 -70 -249 -168 -25 -50 -28 -69 -30 -161 l-1 -103 -54 -27
c-89 -44 -144 -152 -133 -261 10 -95 24 -100 121 -41 36 22 98 51 138 66 l73
27 6 66 c12 127 108 272 216 327 25 12 75 31 111 40 93 26 100 31 100 69 0 18
5 59 11 91 29 160 139 258 319 286 103 15 123 25 221 111 112 99 136 111 213
106 49 -3 71 -10 109 -37 61 -42 112 -93 146 -146 l26 -41 -1 143 c-1 79 3
146 7 149 5 3 9 10 9 15 0 6 -5 7 -11 3 -7 -4 -10 7 -9 32 3 61 1 76 -10 69
-7 -4 -9 8 -5 34 4 33 2 39 -11 34 -8 -3 -14 -2 -12 3 4 17 -13 54 -23 49 -5
-4 -9 3 -9 15 0 14 -5 20 -17 18 -10 -2 -18 2 -18 9 0 20 -14 26 -29 14 -12
-10 -14 -9 -9 8 6 24 -15 29 -23 6 -6 -15 -25 -21 -23 -7 5 29 -3 32 -27 13
-15 -12 -32 -21 -38 -21 -6 0 -5 4 3 9 17 11 24 41 10 41 -5 0 -9 -6 -9 -14z
m-860 -550 c0 -3 -4 -8 -10 -11 -5 -3 -10 -1 -10 4 0 6 5 11 10 11 6 0 10 -2
10 -4z m-380 -371 c0 -2 -10 -10 -22 -16 -21 -11 -22 -11 -9 4 13 16 31 23 31
12z"/>
<path d="M5237 6363 c-4 -3 -7 -13 -7 -22 1 -13 3 -13 11 2 11 19 8 33 -4 20z"/>
<path d="M4390 6319 c0 -5 -4 -7 -10 -4 -5 3 -10 1 -10 -5 0 -6 -4 -8 -10 -5
-5 3 -10 -1 -10 -9 0 -13 4 -14 24 -4 25 11 43 38 26 38 -6 0 -10 -5 -10 -11z"/>
<path d="M4280 6272 c-8 -8 -23 -29 -32 -46 -20 -36 -22 -33 -8 13 9 33 9 34
-8 15 -10 -11 -24 -28 -31 -39 -11 -19 -12 -18 -6 5 5 22 4 23 -7 9 -19 -23
-58 -42 -58 -29 0 7 -6 8 -19 0 -14 -7 -21 -6 -24 3 -3 8 -10 6 -21 -8 l-15
-20 -1 20 c-1 19 -2 18 -13 -3 -7 -12 -16 -20 -19 -17 -13 13 -60 -9 -68 -31
-5 -13 -15 -24 -22 -24 -9 0 -9 3 0 12 17 17 15 33 -3 18 -8 -7 -15 -18 -15
-26 0 -12 -36 -30 -52 -26 -5 1 -8 -2 -8 -8 0 -12 -37 -50 -49 -50 -11 0 -23
-28 -25 -55 -1 -13 -7 -19 -18 -17 -12 2 -18 -6 -20 -30 -2 -24 -9 -34 -23
-36 -35 -5 -65 -25 -63 -41 2 -10 -3 -15 -14 -13 -10 2 -18 -2 -18 -8 0 -5
-11 -10 -25 -10 -14 0 -25 -4 -25 -9 0 -5 -7 -12 -16 -15 -9 -4 -13 -2 -8 5 4
7 1 10 -7 7 -8 -3 -13 -10 -12 -15 1 -5 -8 -10 -19 -10 -11 -1 -28 -9 -37 -17
-10 -9 -26 -16 -37 -16 -11 0 -25 -5 -31 -11 -6 -6 -17 -11 -24 -13 -31 -5
-59 -18 -59 -27 0 -18 -42 -57 -56 -52 -8 3 -14 1 -14 -5 0 -6 6 -13 13 -15 7
-3 4 -6 -7 -6 -11 -1 -16 -6 -13 -15 3 -8 -1 -17 -9 -20 -8 -3 -14 -10 -14
-16 0 -6 -10 -24 -21 -39 -13 -17 -18 -34 -14 -42 5 -7 4 -10 -3 -5 -14 9 -23
-8 -24 -44 -1 -17 -5 -30 -11 -30 -5 0 -7 -13 -4 -30 4 -16 3 -31 -2 -34 -4
-3 -6 -19 -3 -36 2 -16 0 -30 -6 -30 -5 0 -13 -7 -16 -16 -3 -8 -2 -12 3 -9 5
3 12 1 16 -4 3 -6 -3 -15 -14 -20 -10 -6 -22 -22 -25 -36 -4 -14 -10 -25 -15
-25 -5 0 -7 10 -3 22 3 14 1 19 -6 14 -7 -4 -11 -17 -11 -29 1 -33 -6 -56 -21
-70 -10 -10 -11 -9 -5 3 5 9 4 12 -1 7 -5 -5 -9 -12 -10 -15 -3 -22 -18 -42
-33 -42 -13 0 -13 -2 -2 -9 9 -6 10 -11 2 -15 -6 -4 -11 -16 -11 -27 0 -10 -5
-19 -10 -19 -6 0 -15 -12 -20 -26 -6 -14 -14 -23 -18 -20 -5 3 -16 -4 -25 -15
-9 -10 -12 -19 -7 -19 17 0 11 -22 -12 -41 -17 -16 -18 -19 -5 -19 15 0 15 -2
-2 -19 -13 -13 -18 -30 -16 -59 1 -23 -2 -40 -8 -39 -5 1 -13 -10 -18 -26 -5
-17 -4 -25 3 -21 7 4 7 0 0 -12 -12 -24 -14 -166 -1 -158 5 3 9 0 9 -6 0 -6
-7 -13 -15 -16 -13 -5 -13 -8 1 -21 11 -12 12 -18 3 -29 -9 -11 -9 -14 1 -14
10 0 10 -3 1 -14 -8 -10 -9 -16 -1 -21 5 -3 10 0 11 7 0 7 4 4 8 -7 5 -11 5
-28 0 -37 -12 -23 -11 -28 5 -22 15 6 29 -43 14 -52 -4 -3 -6 -10 -2 -15 3 -5
10 -7 15 -3 6 3 7 -11 3 -37 -5 -30 -4 -40 4 -35 8 5 10 -3 5 -26 -3 -18 -9
-35 -12 -38 -10 -8 -10 -40 0 -34 14 8 11 -30 -3 -45 -11 -11 -10 -13 5 -8 14
5 17 1 17 -24 0 -18 4 -28 10 -24 6 3 10 -1 10 -10 0 -10 5 -13 12 -9 8 5 9 2
5 -9 -3 -9 -2 -19 3 -22 5 -3 6 -13 3 -23 -3 -9 -3 -14 2 -10 9 8 35 -15 35
-32 0 -6 5 -8 10 -5 14 9 13 -8 -2 -23 -9 -9 -6 -11 10 -7 23 4 31 -10 10 -18
-10 -3 -10 -8 1 -21 10 -12 17 -14 25 -6 15 15 26 12 19 -7 -5 -13 -3 -15 12
-9 18 7 18 6 1 -13 -11 -12 -14 -21 -7 -26 6 -3 11 -1 11 4 0 6 7 11 16 11 11
0 14 -6 9 -22 -5 -18 -4 -20 4 -8 9 13 11 12 12 -5 l0 -20 9 20 c8 19 9 19 9
-2 1 -24 21 -33 21 -10 0 8 3 7 9 -3 6 -8 7 -18 5 -22 -3 -4 4 -8 15 -8 12 0
21 5 21 11 0 5 4 8 9 5 5 -3 7 -16 4 -29 -5 -18 -3 -20 8 -9 20 19 39 14 39
-10 1 -23 1 -23 17 -3 12 15 14 16 10 3 -3 -9 0 -19 9 -22 23 -9 36 -7 30 3
-3 5 1 11 9 14 9 4 12 1 9 -7 -3 -8 -1 -17 5 -21 6 -3 11 1 11 9 0 8 5 18 12
22 8 5 9 0 6 -14 -6 -23 15 -32 27 -12 3 6 12 10 18 10 7 0 6 -4 -3 -11 -12
-8 -11 -10 5 -7 11 2 20 10 20 18 0 11 11 15 38 15 20 0 37 -3 37 -8 0 -4 5
-5 10 -2 6 4 -10 20 -34 37 -48 31 -92 81 -120 135 -20 40 -46 147 -46 193 l0
35 -56 -3 c-104 -7 -199 54 -255 164 -48 93 -36 248 31 392 28 60 28 63 13 99
-11 28 -14 63 -11 138 3 87 8 109 35 167 17 36 53 89 81 118 50 51 51 54 51
114 0 71 8 101 47 181 59 121 200 223 322 233 46 4 55 8 65 31 83 201 123 253
235 308 69 35 84 38 176 41 l101 4 25 57 c13 31 44 79 67 107 23 29 39 55 35
59 -4 4 -1 5 7 3 7 -1 16 3 19 11 3 9 0 11 -8 6 -7 -4 -15 -3 -19 3 -4 6 -12
4 -21 -6z m-586 -401 c-10 -10 -21 -14 -23 -8 -4 10 17 27 33 27 5 0 1 -8 -10
-19z m-647 -1053 c-3 -8 -6 -5 -6 6 -1 11 2 17 5 13 3 -3 4 -12 1 -19z"/>
<path d="M4150 6219 c0 -5 5 -7 10 -4 6 3 10 8 10 11 0 2 -4 4 -10 4 -5 0 -10
-5 -10 -11z"/>
<path d="M6341 6154 c0 -11 3 -14 6 -6 3 7 2 16 -1 19 -3 4 -6 -2 -5 -13z"/>
<path d="M5161 6014 c0 -11 3 -14 6 -6 3 7 2 16 -1 19 -3 4 -6 -2 -5 -13z"/>
<path d="M4965 6010 c-3 -5 -1 -10 4 -10 6 0 11 5 11 10 0 6 -2 10 -4 10 -3 0
-8 -4 -11 -10z"/>
<path d="M4965 5970 c-3 -5 -1 -10 4 -10 6 0 11 5 11 10 0 6 -2 10 -4 10 -3 0
-8 -4 -11 -10z"/>
<path d="M3706 5924 c-4 -10 -1 -14 6 -12 15 5 23 28 10 28 -5 0 -13 -7 -16
-16z"/>
<path d="M4612 5861 c-36 -9 -48 -19 -133 -103 -72 -71 -93 -81 -199 -103
-107 -21 -147 -38 -187 -77 -48 -46 -72 -113 -80 -219 -6 -88 -7 -92 -36 -109
-16 -10 -69 -31 -116 -45 -47 -15 -99 -34 -116 -42 -52 -26 -104 -85 -125
-140 -25 -67 -37 -182 -21 -210 10 -20 5 -23 -116 -64 -125 -41 -220 -85 -257
-117 -41 -37 -96 -126 -66 -107 14 9 12 -7 -3 -30 -16 -24 -15 -192 2 -223 6
-10 8 -22 5 -25 -12 -11 38 -68 76 -87 58 -30 95 -26 151 16 l49 36 0 -30 c0
-20 -13 -48 -36 -78 -34 -45 -36 -50 -30 -101 7 -62 34 -135 47 -127 5 3 6 -1
3 -9 -8 -23 68 -110 123 -139 115 -63 270 -72 431 -27 127 35 214 85 365 207
105 84 121 91 150 64 66 -62 204 -75 295 -29 92 48 135 132 152 297 21 214
-49 409 -158 440 -55 15 -161 12 -222 -6 -118 -35 -185 -103 -225 -230 -52
-165 -119 -227 -281 -265 -52 -12 -127 -37 -166 -56 -39 -18 -73 -32 -75 -29
-3 2 4 25 15 49 25 57 79 90 193 118 108 28 174 61 194 99 8 16 22 62 30 102
31 146 128 245 284 292 63 18 159 21 215 5 52 -14 80 1 117 66 21 37 29 63 29
101 0 107 -62 242 -137 300 -110 84 -279 99 -350 32 -14 -13 -44 -63 -68 -113
-55 -113 -89 -154 -168 -201 -139 -83 -197 -158 -197 -255 0 -40 4 -51 31 -73
17 -14 35 -26 40 -26 5 0 4 -9 -3 -20 -17 -26 -94 -55 -188 -69 -131 -20 -223
-77 -278 -170 -24 -41 -27 -56 -27 -136 0 -49 4 -101 8 -115 8 -24 8 -25 -9
-5 -55 67 -76 179 -49 270 39 136 151 219 335 249 l35 6 -3 75 c-4 66 -1 82
24 133 39 80 114 150 222 206 100 51 122 75 147 156 43 144 96 204 206 230
195 47 433 -125 474 -343 4 -20 10 -37 14 -37 8 0 5 71 -4 122 -5 26 -3 43 6
55 8 9 9 14 3 10 -8 -5 -11 7 -10 37 1 24 -2 42 -6 40 -5 -3 -8 4 -8 16 0 12
5 18 10 15 6 -3 10 -1 10 4 0 6 -4 11 -10 11 -5 0 -10 7 -10 15 0 8 5 15 11
15 5 0 8 4 5 9 -3 5 -25 -11 -50 -35 -60 -60 -93 -60 -38 0 28 30 46 63 58
102 40 140 -25 353 -125 403 -43 22 -133 33 -179 22z m-1418 -1626 c3 -8 1
-15 -4 -15 -6 0 -10 7 -10 15 0 8 2 15 4 15 2 0 6 -7 10 -15z m23 -47 c-3 -8
-6 -5 -6 6 -1 11 2 17 5 13 3 -3 4 -12 1 -19z"/>
<path d="M5210 5539 c0 -5 5 -7 10 -4 6 3 10 8 10 11 0 2 -4 4 -10 4 -5 0 -10
-5 -10 -11z"/>
<path d="M5563 5169 c-36 -3 -84 -17 -116 -33 -85 -41 -238 -191 -237 -232 0
-5 4 -4 8 3 4 6 7 -8 7 -33 0 -24 -5 -44 -10 -44 -6 0 -9 -16 -7 -38 3 -27 -1
-44 -13 -56 -15 -15 -16 -23 -6 -56 12 -39 61 -90 87 -90 8 0 14 -4 14 -10 0
-16 -43 -11 -76 9 l-30 18 2 -31 c1 -17 3 -33 4 -36 1 -3 1 -18 0 -34 -2 -29
-1 -29 61 28 35 32 97 74 138 94 65 32 84 37 165 40 147 6 232 -37 332 -168
21 -27 56 -59 80 -71 66 -36 106 -19 214 91 101 102 131 115 196 82 69 -35
109 -96 139 -210 24 -96 34 -110 102 -154 35 -22 63 -42 63 -44 0 -7 -114 37
-144 55 -40 25 -72 82 -87 152 -23 112 -79 169 -153 155 -25 -5 -50 -25 -105
-85 -73 -82 -150 -131 -200 -131 -53 1 -116 41 -201 128 -91 95 -124 112 -212
112 -88 0 -194 -49 -281 -129 -51 -46 -106 -181 -75 -181 10 0 9 -3 -2 -10
-10 -6 -11 -10 -2 -10 7 0 12 -14 12 -36 0 -24 -4 -33 -12 -28 -8 5 -9 0 -5
-17 4 -13 7 -30 7 -37 0 -7 4 -10 10 -7 5 3 7 0 4 -9 -8 -22 61 -93 111 -112
31 -11 65 -15 113 -12 64 3 76 8 162 62 146 93 193 90 421 -27 121 -62 143
-70 207 -75 91 -6 84 -22 -10 -22 -64 0 -84 6 -200 55 -141 61 -216 80 -263
66 -16 -4 -70 -31 -120 -60 -104 -60 -147 -73 -231 -73 -74 -1 -153 32 -205
84 -28 28 -37 32 -47 22 -7 -7 -12 -20 -12 -28 0 -8 -6 -17 -12 -19 -10 -4
-10 -8 1 -15 9 -7 10 -12 2 -16 -6 -4 -11 -14 -11 -22 0 -8 5 -12 10 -9 6 3
10 -1 10 -9 0 -9 -5 -16 -10 -16 -7 0 -10 -186 -10 -575 1 -352 5 -573 11
-570 5 4 9 -3 9 -15 0 -21 50 -104 50 -85 0 6 7 2 14 -8 12 -16 15 -16 29 -2
9 8 19 15 24 15 11 0 31 46 39 90 4 19 16 50 27 69 12 19 15 31 9 27 -15 -9
-15 -1 1 26 19 34 40 57 47 53 4 -2 19 37 34 88 55 187 118 287 261 416 69 63
206 151 235 151 8 0 -9 13 -37 29 -68 38 -127 85 -155 123 -24 34 -18 32 53
-19 239 -171 662 -190 940 -42 122 65 250 238 280 378 35 163 -36 331 -178
426 -42 27 -74 33 -112 21 -22 -8 -23 -6 -17 20 4 16 10 77 13 135 7 143 -10
206 -76 270 -35 34 -62 49 -107 62 -86 24 -118 22 -251 -19 -152 -47 -269 -57
-329 -26 -45 23 -77 56 -125 127 -39 59 -45 65 -83 90 -35 23 -102 32 -183 24z
m-374 -1182 c-17 -32 -18 -32 -15 -1 5 37 4 36 16 29 7 -4 6 -14 -1 -28z"/>
<path d="M5215 5090 c-3 -5 -1 -10 5 -10 6 0 8 -5 4 -12 -5 -9 -3 -9 9 1 9 7
14 17 11 22 -7 12 -21 11 -29 -1z"/>
<path d="M7316 5073 c-6 -14 -5 -15 5 -6 7 7 10 15 7 18 -3 3 -9 -2 -12 -12z"/>
<path d="M4952 4980 c0 -14 2 -19 5 -12 2 6 2 18 0 25 -3 6 -5 1 -5 -13z"/>
<path d="M4936 4902 c-7 -47 -58 -126 -96 -148 l-27 -17 40 -36 c22 -20 53
-56 69 -81 l29 -45 -2 35 c-2 57 11 252 18 263 4 6 0 8 -8 5 -12 -5 -14 2 -11
28 6 46 -4 43 -12 -4z"/>
<path d="M5180 4779 c0 -22 4 -38 8 -35 8 5 4 76 -4 76 -2 0 -4 -18 -4 -41z"/>
<path d="M4971 4504 c0 -11 3 -14 6 -6 3 7 2 16 -1 19 -3 4 -6 -2 -5 -13z"/>
<path d="M4981 4454 c0 -11 3 -14 6 -6 3 7 2 16 -1 19 -3 4 -6 -2 -5 -13z"/>
<path d="M4966 4095 c-4 -14 -4 -31 0 -38 4 -7 4 -9 -1 -5 -5 5 -23 -14 -41
-41 -95 -141 -257 -192 -400 -127 l-57 26 -139 -105 c-76 -57 -171 -120 -211
-139 -103 -49 -260 -86 -366 -86 -107 0 -121 -7 -84 -42 130 -121 455 -144
685 -48 37 15 103 53 148 84 53 37 82 52 84 44 3 -7 6 -40 9 -73 6 -72 56
-267 68 -260 4 3 11 0 15 -6 4 -8 3 -9 -4 -5 -7 4 -12 1 -12 -8 0 -9 4 -16 9
-16 5 0 7 -9 4 -20 -3 -12 0 -20 7 -20 7 0 10 -7 6 -15 -3 -8 -1 -15 5 -15 6
0 8 -9 4 -20 -4 -14 -2 -20 7 -18 8 2 13 -7 13 -23 -1 -18 4 -25 13 -22 7 3
12 2 11 -3 -4 -25 2 -54 11 -49 6 4 10 -7 10 -24 0 -17 5 -31 10 -31 6 0 10
-14 10 -31 0 -20 4 -28 12 -23 7 5 9 2 6 -7 -3 -8 0 -23 8 -34 8 -10 14 -26
14 -36 0 -9 6 -22 14 -28 8 -6 12 -26 10 -46 -1 -19 2 -35 7 -35 5 0 9 8 9 18
0 10 8 2 17 -18 19 -37 43 -61 55 -54 5 3 8 24 9 47 0 23 3 37 5 30 3 -7 12
-9 20 -6 13 5 13 7 2 15 -10 7 -10 11 0 15 9 4 12 112 12 494 0 324 -3 488
-10 484 -5 -3 -10 -1 -10 4 0 6 5 11 10 11 6 0 10 33 10 80 0 44 -4 80 -8 80
-15 0 -33 73 -21 85 7 7 8 4 3 -10 -7 -18 -6 -18 9 -7 11 9 16 28 15 58 -1 50
-3 54 -12 19z m1 -262 c-3 -10 -5 -2 -5 17 0 19 2 27 5 18 2 -10 2 -26 0 -35z
m-1257 -273 c0 -5 -2 -10 -4 -10 -3 0 -8 5 -11 10 -3 6 -1 10 4 10 6 0 11 -4
11 -10z m1257 -12 c-3 -8 -6 -5 -6 6 -1 11 2 17 5 13 3 -3 4 -12 1 -19z m0
-95 c-3 -10 -5 -4 -5 12 0 17 2 24 5 18 2 -7 2 -21 0 -30z m0 -245 c-3 -8 -6
-5 -6 6 -1 11 2 17 5 13 3 -3 4 -12 1 -19z m0 -80 c-3 -7 -5 -2 -5 12 0 14 2
19 5 13 2 -7 2 -19 0 -25z"/>
<path d="M3470 3640 c0 -5 7 -10 15 -10 8 0 15 5 15 10 0 6 -7 10 -15 10 -8 0
-15 -4 -15 -10z"/>
<path d="M5900 3504 c-36 -31 -69 -60 -74 -65 -16 -14 116 -69 216 -90 160
-33 298 -21 450 37 61 23 88 44 57 44 -6 0 -30 13 -53 29 -40 26 -50 28 -177
34 -120 5 -263 31 -339 61 -9 4 -39 -15 -80 -50z"/>
<path d="M4445 3458 c-16 -11 -21 -17 -10 -13 11 4 26 8 33 8 6 0 12 6 12 14
0 16 2 16 -35 -9z"/>
<path d="M4450 3427 c0 -19 -30 -44 -63 -52 -15 -4 -32 -15 -37 -24 -8 -14 -9
-14 -10 0 0 18 -30 22 -30 3 0 -6 -7 -14 -14 -17 -11 -4 -13 -1 -10 11 3 9 -5
-2 -17 -26 -12 -23 -24 -40 -27 -38 -3 3 1 12 8 21 7 9 10 18 7 21 -8 9 -47
-57 -47 -80 0 -15 3 -16 15 -6 12 10 15 10 15 0 0 -7 6 -10 14 -7 8 3 17 -1
20 -10 5 -12 9 -13 20 -4 11 9 15 9 19 -1 4 -8 6 -7 6 5 1 25 21 21 21 -5 0
-13 4 -18 8 -12 10 15 42 25 42 13 0 -6 5 -7 10 -4 6 3 10 1 10 -6 0 -7 7 -4
16 7 8 10 13 13 9 7 -3 -7 -2 -13 2 -13 5 0 14 12 20 28 l12 27 -5 -30 c-5
-30 -5 -30 11 5 13 28 18 32 25 20 12 -19 13 -4 1 37 -6 21 -5 35 2 42 8 8 8
11 0 11 -7 0 -10 14 -9 35 3 37 -2 43 -23 23 -11 -11 -12 -9 -6 10 4 13 2 22
-4 22 -6 0 -11 -6 -11 -13z"/>
<path d="M4250 3384 l-45 -14 40 5 c22 3 48 5 58 5 10 0 15 5 12 10 -7 12 -6
12 -65 -6z"/>
<path d="M4200 3290 c-7 -16 -16 -30 -21 -30 -5 0 -9 -4 -9 -10 0 -5 4 -10 9
-10 10 0 45 69 38 76 -2 3 -10 -9 -17 -26z"/>
<path d="M4170 3289 c0 -5 -4 -8 -9 -5 -10 6 -25 -24 -16 -32 6 -6 45 28 45
40 0 4 -4 8 -10 8 -5 0 -10 -5 -10 -11z"/>
<path d="M6081 2174 c0 -11 3 -14 6 -6 3 7 2 16 -1 19 -3 4 -6 -2 -5 -13z"/>
<path d="M1926 1864 c20 -33 43 -61 50 -61 12 0 12 3 0 16 -7 9 -20 25 -29 36
-49 61 -54 64 -21 9z"/>
<path d="M6391 1724 c0 -11 3 -14 6 -6 3 7 2 16 -1 19 -3 4 -6 -2 -5 -13z"/>
<path d="M6471 1554 c0 -11 3 -14 6 -6 3 7 2 16 -1 19 -3 4 -6 -2 -5 -13z"/>
<path d="M6773 705 c-19 -21 -16 -27 7 -13 11 7 20 16 20 20 0 12 -14 9 -27
-7z"/>
<path d="M6727 610 c-9 -11 -13 -20 -8 -20 4 0 16 9 26 20 10 11 14 20 9 20
-5 0 -17 -9 -27 -20z"/>
<path d="M9720 595 c-10 -11 -10 -19 -2 -27 15 -15 44 -2 40 19 -4 23 -22 27
-38 8z"/>
<path d="M9610 550 c-38 -9 -32 -36 8 -32 17 2 32 -1 32 -6 0 -5 -11 -9 -25
-9 -53 0 -74 -51 -32 -77 13 -8 37 -12 60 -9 l37 5 0 53 c0 66 -25 89 -80 75z
m40 -91 c0 -5 -9 -9 -20 -9 -22 0 -27 16 -7 23 15 5 27 -1 27 -14z"/>
<path d="M9720 485 c0 -58 2 -65 20 -65 18 0 20 7 20 65 0 58 -2 65 -20 65
-18 0 -20 -7 -20 -65z"/>
</g>
</svg>
